<svg width="18" height="14" viewBox="0 0 18 14" fill="none" xmlns="http://www.w3.org/2000/svg">
<path d="M9.48214 4.90177V3.8482C9.48214 3.5982 9.39286 3.38391 9.21429 3.20534C9.03571 3.02677 8.82143 2.93748 8.57143 2.93748C8.32143 2.93748 8.10714 3.02677 7.92857 3.20534C7.75 3.38391 7.66071 3.5982 7.66071 3.8482V9.31248C7.66071 10.3541 7.28571 11.244 6.53571 11.9821C5.78571 12.7202 4.88393 13.0893 3.83036 13.0893C2.77083 13.0893 1.86607 12.7172 1.11607 11.9732C0.372024 11.2232 0 10.3184 0 9.25891V6.88391H2.92857V9.2232C2.92857 9.47915 3.01786 9.69641 3.19643 9.87498C3.375 10.0476 3.58929 10.1339 3.83929 10.1339C4.08929 10.1339 4.30357 10.0476 4.48214 9.87498C4.66071 9.69641 4.75 9.47915 4.75 9.2232V3.68748C4.75 2.66962 5.125 1.80058 5.875 1.08034C6.63095 0.360101 7.52976 -1.81198e-05 8.57143 -1.81198e-05C9.61905 -1.81198e-05 10.5179 0.363077 11.2679 1.08927C12.0179 1.81546 12.3929 2.69046 12.3929 3.71427V4.92855L10.6518 5.44641L9.48214 4.90177ZM14.2143 6.88391H17.1429V9.25891C17.1429 10.3184 16.7679 11.2232 16.0179 11.9732C15.2738 12.7172 14.372 13.0893 13.3125 13.0893C12.2589 13.0893 11.3571 12.7202 10.6071 11.9821C9.85714 11.2381 9.48214 10.3422 9.48214 9.29463V6.90177L10.6518 7.44641L12.3929 6.92855V9.33927C12.3929 9.58927 12.4821 9.80355 12.6607 9.98213C12.8393 10.1547 13.0536 10.2411 13.3036 10.2411C13.5536 10.2411 13.7679 10.1547 13.9464 9.98213C14.125 9.80355 14.2143 9.58927 14.2143 9.33927V6.88391Z" fill="white"/>
</svg>
